<?xml version="1.0" encoding="UTF-8"?>
<svg xmlns="http://www.w3.org/2000/svg" xmlns:xlink="http://www.w3.org/1999/xlink">


<symbol id="close" viewBox="0 0 26 26">
    <g id="surface1">
    <path d="M 21.734375 19.640625 L 19.636719 21.734375 C 19.253906 22.121094 18.628906 22.121094 18.242188 21.734375 L 13 16.496094 L 7.761719 21.734375 C 7.375 22.121094 6.746094 22.121094 6.363281 21.734375 L 4.265625 19.640625 C 3.878906 19.253906 3.878906 18.628906 4.265625 18.242188 L 9.503906 13 L 4.265625 7.761719 C 3.882813 7.371094 3.882813 6.742188 4.265625 6.363281 L 6.363281 4.265625 C 6.746094 3.878906 7.375 3.878906 7.761719 4.265625 L 13 9.507813 L 18.242188 4.265625 C 18.628906 3.878906 19.257813 3.878906 19.636719 4.265625 L 21.734375 6.359375 C 22.121094 6.746094 22.121094 7.375 21.738281 7.761719 L 16.496094 13 L 21.734375 18.242188 C 22.121094 18.628906 22.121094 19.253906 21.734375 19.640625 Z "/>
    </g>
</symbol>

<symbol id="add" viewBox="0 0 42 42">
<path fill="#c4c4c4" d="M37.059,16H26V4.941C26,2.224,23.718,0,21,0s-5,2.224-5,4.941V16H4.941C2.224,16,0,18.282,0,21s2.224,5,4.941,5H16v11.059
	C16,39.776,18.282,42,21,42s5-2.224,5-4.941V26h11.059C39.776,26,42,23.718,42,21S39.776,16,37.059,16z"/>
<g>
</g>
<g>
</g>
<g>
</g>
<g>
</g>
<g>
</g>
<g>
</g>
<g>
</g>
<g>
</g>
<g>
</g>
<g>
</g>
<g>
</g>
<g>
</g>
<g>
</g>
<g>
</g>
<g>
</g>
</symbol>

<symbol id="loupe" viewBox="0 0 26.1 26.1">
  <path d="m25.806,22.9l-5.4-5.4c-0.2-0.2-0.2-0.4-0.1-0.6 1.1-1.7 1.7-3.7 1.7-5.9 0-6.1-4.9-11-11-11s-11,4.9-11,11 4.9,11 11,11c2.2,0 4.2-0.6 5.9-1.7 0.2-0.1 0.5-0.1 0.6,0.1l5.4,5.4c0.4,0.4 1,0.4 1.4,0l1.4-1.4c0.5-0.5 0.5-1.1 0.1-1.5zm-14.7-4.9c-3.9,0-7-3.1-7-7s3.1-7 7-7 7,3.1 7,7-3.1,7-7,7z"/>
</symbol>

</svg>
